<svg version="1.1" xmlns="http://www.w3.org/2000/svg" viewBox="0 0 1330.5383492893664 775.07421875" width="1330.5383492893664" height="775.07421875">
  <!-- svg-source:excalidraw -->
  
  <defs>
    <style>
      @font-face {
        font-family: "Virgil";
        src: url("https://excalidraw.com/Virgil.woff2");
      }
      @font-face {
        font-family: "Cascadia";
        src: url("https://excalidraw.com/Cascadia.woff2");
      }
    </style>
  </defs>
  <rect x="0" y="0" width="1330.5383492893664" height="775.07421875" fill="#ffffff"></rect><g stroke-linecap="round" transform="translate(115.09303678936635 122.79296875) rotate(0 67 32.478515625)"><path d="M0 0 C0 0, 0 0, 0 0 M0 0 C0 0, 0 0, 0 0 M-0.19 6.56 C1.72 4.85, 4.31 1.67, 5.32 -0.14 M-0.31 6.32 C0.54 4.9, 2.27 4.23, 5.01 0.57 M0.99 11 C3.3 6.8, 5.4 3.63, 11.81 -1.62 M0.9 11.49 C3.45 8.92, 6.8 5.47, 10.01 -0.34 M-2.03 19.68 C5.63 11.14, 8.96 7.08, 16.68 -1.62 M-0.01 19.25 C4 13.4, 7.79 10.53, 16.31 1.03 M0.96 25.83 C3.25 17.97, 11.16 11.39, 21.49 -1.49 M0.11 24.91 C5.18 19.37, 9.59 13.79, 21.06 0.02 M0.34 30.82 C8.14 20.86, 18.56 11.74, 25.59 -0.65 M-0.08 30.08 C10.3 18.07, 19.82 6.87, 27.06 0.96 M0.47 37.28 C9.2 26.01, 16.54 17.67, 30.6 1.37 M0.57 37.03 C9.26 27.33, 17.5 16.56, 31.28 -0.15 M2.14 41.88 C9.18 31.75, 19.24 18.26, 37.61 -0.53 M0.32 42.96 C10.33 31.41, 18.92 22.04, 36.82 -0.53 M-1.25 50.42 C14.57 32.08, 34.53 10.52, 40.63 -0.34 M-0.01 49.29 C10.23 36.58, 20.16 23.68, 42.6 -0.59 M1.17 55.33 C9.82 42.67, 21.45 31.26, 47.54 1.97 M-0.03 54.54 C13.85 36.53, 29.14 19.04, 47.5 1.2 M-1.42 62.58 C13.87 43.45, 28.08 26.51, 53.5 1.21 M0.33 61.39 C11.61 47.87, 24.81 32.2, 54.01 0.39 M0.63 67.65 C19.62 45.49, 33.48 30.27, 57.91 1.84 M1.19 66.06 C20.92 44.53, 39.29 21.86, 58.41 -0.35 M5 67.36 C15.81 51.33, 29.58 38.93, 61.84 -1.3 M5.46 66.35 C23.45 46.56, 39.69 27.2, 64.39 -1.16 M10.97 66.28 C29.31 47.72, 41.75 31.98, 68.96 -0.12 M10.73 65.33 C35.41 39.84, 58.04 14.49, 69.25 0.15 M17.56 64.42 C32.01 47.12, 48.78 31.2, 74.99 -0.48 M16.48 65.35 C39.88 40.24, 61.61 14.2, 73.51 0.16 M24.31 67.35 C36.05 48.15, 53.2 31.7, 80.64 0.64 M23.21 65.38 C45.2 39.44, 67.73 12.1, 79.1 0.94 M28.26 64.99 C41.46 48.26, 53.04 33.35, 85.02 -0.1 M26.56 66.18 C42.91 47.48, 58.88 29.95, 85.01 0.13 M33.35 64.43 C48.23 49.84, 61.22 30.61, 90.63 -1.53 M32.97 66.3 C55.88 39.77, 78.51 14.51, 89.45 0.07 M39.4 64.78 C55.36 47.66, 72.16 25.49, 96.73 -1.18 M37.86 65.24 C59.64 41.68, 80.92 16.12, 95.46 -0.13 M43.5 65.9 C62.3 43.67, 82.5 22.18, 100.33 -0.49 M43.25 65.52 C59.78 48.01, 75.44 29.51, 101.15 0.5 M48.99 67.3 C65.49 45.45, 83.52 26.63, 105.61 0.04 M47.94 65.78 C66.5 44.57, 84.97 25.34, 107.29 -1.13 M54.89 64.89 C70.96 48.36, 84.08 27.84, 112.85 -0.35 M55.17 64.85 C69.59 47.63, 84.59 31.66, 111.48 0.99 M60.79 65.83 C76.77 45.4, 93.43 30.02, 115.23 -1.13 M58.75 66.89 C80.52 41.08, 103.78 16.63, 117.17 0.74 M64.36 65.33 C83.11 44.22, 99.25 24.77, 123.03 -1.41 M64.75 65.44 C77.28 52.24, 88.05 38.07, 121.08 -0.78 M70.24 65.45 C92.98 41.62, 113.62 15.84, 125.85 1.13 M69.63 66.55 C84.45 48.55, 100.62 29.78, 127.63 1.16 M75.49 63.92 C97.28 41.67, 121.06 16.44, 131.41 1.8 M75.9 64.82 C92.53 46.33, 110.28 25.13, 132.98 0.68 M78.53 64.98 C101.13 45, 119.6 24.18, 135.16 3.21 M80.3 66.56 C101.04 42.92, 120.41 19.85, 136.83 0.97 M84.57 64.15 C100.87 47.38, 116.91 30.73, 135.06 6.83 M85.42 65.85 C106.07 43.04, 126.66 19.62, 136.41 8.05 M90.55 67.07 C105.73 47.96, 123.04 30.17, 137.67 13.03 M91.88 65.63 C101.26 55.18, 110.92 43.3, 136.87 14.14 M98.59 66.28 C108.39 51.81, 118.15 42.96, 135.9 20.19 M95.99 65.78 C106.39 54.37, 115.38 43.54, 136.13 21.03 M100.92 64.11 C110.03 54.64, 116.76 48.41, 137.67 25.73 M101.89 66.28 C109.77 55.48, 118.89 44.75, 135.85 26.4 M109.29 65.38 C114.13 58.7, 118.89 52.2, 134.91 32.93 M107.2 65.2 C114.56 57.78, 120.17 49, 135.61 32.94 M111.96 64.31 C118.31 57.14, 124.01 49.59, 136.31 40.49 M113.21 65.91 C121.63 55.23, 128.59 46.37, 135.89 39.15 M118.45 66.02 C121.17 61.81, 129.22 56.06, 135.53 45.62 M117.85 65.83 C122.93 59.66, 129.29 51.75, 135.48 44.72 M123.74 65.62 C127.17 61.07, 131.93 52.99, 137.44 49.07 M123.15 65.8 C125.66 63.54, 127.83 59.37, 135.97 50.88 M127.11 65.65 C128.69 64.71, 131.06 62.96, 136.08 56.11 M127.76 66.36 C130.05 63.47, 132.8 60.69, 135.37 57.02" stroke="#228be6" stroke-width="0.5" fill="none"></path><path d="M-0.68 -0.15 C41.34 -0.38, 81.66 -1.22, 134.48 -0.75 M-0.42 -0.41 C27.94 1.15, 57.97 0.4, 134.98 0.69 M132.5 -1.32 C134.33 22.93, 136.16 46.89, 132.68 65.42 M134.02 -0.26 C133.92 21.91, 133.17 46.11, 133.12 64.77 M134.79 66.07 C98.97 67.64, 66.82 64.47, 2 66.44 M134.56 65.59 C103.46 67.11, 72.91 66.13, -0.82 65.31 M0.2 63.88 C0.47 41, 2.42 16.4, 1.24 -0.48 M-0.78 64.59 C-1.55 40.05, -0.47 16.81, 0.79 0.26" stroke="#000000" stroke-width="1" fill="none"></path></g><g transform="translate(120.09303678936635 142.771484375) rotate(0 62 12.5)"><text x="62" y="18" font-family="Virgil, Segoe UI Emoji" font-size="20px" fill="#000000" text-anchor="middle" style="white-space: pre;" direction="ltr">p1</text></g><g stroke-linecap="round" transform="translate(114.51491178936635 331.1953125) rotate(0 107.5 36)"><path d="M0 0 C0 0, 0 0, 0 0 M0 0 C0 0, 0 0, 0 0 M0.44 5.75 C1.35 4.85, 2.77 2.17, 4.42 -0.2 M0.07 6.5 C2.01 4.13, 3.92 1.9, 5.02 0.5 M0.41 11.66 C4.29 8.56, 8.89 2.75, 9.87 1.3 M-0.19 12.44 C3.58 7.32, 7.95 3.31, 11.16 -0.49 M0.28 20.37 C3.85 13.06, 10.39 3.51, 17.09 -0.09 M0.03 18.97 C5.26 12.67, 9.55 6.81, 15.57 0.15 M-0.37 22.89 C8.41 14.36, 13.8 8.58, 20.47 -1.17 M0.7 24.99 C4.37 18.93, 10.24 12.74, 20.48 0.81 M1.51 28.99 C11.89 21.32, 19.13 6.27, 26.04 -0.71 M0.38 30.41 C9.12 19.15, 17.62 9.53, 25.8 -0.37 M0.52 35.64 C11.62 23.25, 24.06 11.1, 33.63 0.23 M-0.28 35.92 C11.19 22.32, 23.11 8.92, 32.87 -0.36 M1.76 41.37 C7.85 31.63, 16.06 23.83, 38.26 -1.16 M0.57 41.77 C11.07 31.18, 19.4 20.26, 37.44 0.1 M1.68 50.69 C7.55 37.68, 20.34 27.35, 44.17 0.69 M0.09 49.44 C14.77 32.34, 28.37 17.29, 41.98 -1.11 M1.43 53.01 C15.83 35.78, 33.88 13.81, 46.41 0.01 M0.42 54.76 C10.57 42.23, 21.16 30.77, 46.55 -0.09 M0.48 62.86 C12.41 45.34, 27.2 31.71, 52.88 1.78 M-0.47 61.34 C11.01 49.31, 22.63 36.99, 53.15 -0.52 M-2 66.83 C11.03 53.46, 25.39 38.52, 57.9 1.99 M-1.08 67.73 C14.52 49.96, 29.26 32.36, 58.54 -0.23 M2.37 71.21 C19.19 51.16, 38.69 29.24, 64.3 1.78 M0.4 72.28 C18.95 50.28, 36.24 29.04, 64.6 -0.8 M4.64 73.47 C28.37 42.67, 53.94 15.9, 68.94 -0.33 M5.83 72.86 C29.66 45.4, 54.77 17.07, 69.17 -0.18 M10.12 72.7 C35.81 44.07, 56.92 20.12, 72.8 1.7 M11.99 72.5 C30.56 50.56, 50.4 27.81, 74.4 -0.26 M15.09 72.8 C36.52 50.25, 52.99 29.79, 78.52 1.66 M15.56 72.79 C38.51 47.53, 59.57 22.77, 79.58 0.55 M22.25 71.87 C46.71 44.88, 71.76 16.56, 84.5 -0.75 M21.87 72.51 C40.48 51.82, 58.2 31.32, 85.49 -0.32 M28.28 72.46 C45.31 51.04, 65.45 27.17, 90.41 0.3 M26.76 72.07 C40.89 56.13, 56.97 40.17, 89.25 -0.14 M31.91 73.69 C58.65 41.92, 81.41 15.82, 95.31 -1.1 M31.87 72.9 C52.89 48.01, 75.26 22.86, 96.65 -0.51 M37.48 73.52 C48.39 58.59, 64.52 40.71, 99.15 1.64 M38.53 71.87 C53.63 55.21, 70.21 36.61, 101.02 0.05 M42.35 73.6 C56.04 55.37, 71.43 39.33, 104.91 -2.22 M42.47 73.41 C60.87 51.65, 78.34 30.46, 105.54 0.52 M47.75 73.76 C70.58 47.91, 91.31 22.74, 112.08 -0.55 M48.85 72.22 C73.7 44.09, 97.91 15.51, 112.1 0.8 M51.61 72.47 C67.52 59.24, 80.52 40.87, 118.13 0.55 M52.5 72.89 C79.34 43.95, 103.45 15.41, 117.01 0.8 M57.95 73.7 C75.99 55.31, 93.11 35.24, 123.31 1.23 M59.53 73.06 C80.44 47.77, 101.95 24.01, 121.07 0.17 M62.5 71.18 C77.88 55.78, 93.46 40.36, 125.52 2.29 M64.2 72.86 C81.96 53.37, 99.33 32.31, 126.74 0.95 M70.7 70.55 C87.37 52.31, 105.22 35.08, 131.72 -1.83 M69.26 73.24 C91.37 48.08, 112 22.9, 132.83 -0.36 M75.3 73.57 C88.52 54.27, 107.4 36.28, 137.47 -0.92 M74.8 73.46 C99.02 44.83, 123.94 15.84, 138.31 -0.25 M78.41 72.26 C98.88 47.79, 122.37 27.84, 143.01 -0.79 M80.58 71.45 C103.27 45.05, 125.91 19.18, 143.69 -0.95 M85.06 73.17 C101.96 52.4, 118.86 33.31, 148.8 -1.06 M84.88 73.24 C105.12 49.29, 124.03 26.36, 148.81 0.12 M89.27 71.49 C107.12 50.52, 124.76 32.69, 155.61 0.99 M90.88 73.33 C111.3 46.47, 133.73 21.95, 154.27 -0.35 M95.61 71.28 C117.28 50.96, 137.37 26.04, 160.08 0.64 M95.42 72.13 C113.5 52.36, 129.73 32.04, 159.18 0.9 M101.25 71.62 C118.26 52.65, 131.95 36.02, 162.77 -2.12 M101.43 72.36 C122.53 48.65, 141.5 25.81, 164.58 -0.93 M105.55 70.86 C123.36 54, 139.76 36.83, 167.71 -0.35 M106.72 72.45 C120.2 57.15, 134.04 39.01, 169.23 -0.23 M112.1 72.75 C131.44 50.01, 151.5 29.59, 174.51 -0.04 M112.35 72.94 C131.53 49.64, 150.61 27.45, 174.99 0.33 M118.29 70.64 C130.27 59.46, 145.04 42.18, 181.85 2.16 M117.46 71.91 C140.76 43.87, 165.01 16.67, 180.63 0.33 M121.36 73.69 C140.73 51.01, 162.52 26.6, 187.62 -0.97 M123.63 71.35 C136.16 56.49, 151.2 38.05, 185.21 -1.14 M128 71.04 C147.55 52.57, 161.85 31.93, 192.43 -0.92 M127.68 72.61 C146.84 52.48, 165.7 29.52, 189.9 1.07 M132.35 73.99 C151.23 53.23, 170.74 32.6, 195.69 -1.38 M134.08 72.77 C157.32 45.02, 181.52 16.93, 195.33 -0.55 M137.62 72.21 C155.05 51.91, 176.31 33.04, 203.17 0.05 M137.76 72.06 C159.39 47.85, 179.77 23.73, 201.43 0.36 M142.15 71.89 C159.54 49.39, 178.64 30.63, 207.07 -0.04 M144.43 72.25 C165.62 46.99, 187.21 22.31, 206.79 -0.69 M148.91 72 C173.3 43.86, 198.56 17.25, 213.57 -0.59 M149.46 72.12 C162.94 56.58, 175.37 40.54, 212.47 -0.53 M154.99 71.14 C171.87 50.35, 189.09 31.76, 217.6 1.53 M153.56 72.52 C173.36 51.76, 191.01 29.06, 216.07 0.52 M160.37 72.01 C175.69 52.87, 192.33 34.85, 214.37 5.78 M158.89 72.08 C178.51 51.8, 195.76 31.38, 215.55 7.11 M162.84 71.9 C182.1 51.57, 202.73 29.72, 215.33 15.05 M164.2 71.89 C180.86 53.03, 198.41 35.15, 216.46 13.13 M169.32 71.54 C180.98 62.59, 190.38 49.49, 217.25 17.93 M169.52 71.6 C185.42 54.21, 200.16 37.41, 215.27 20.3 M175.48 73.35 C185.87 61.81, 194.18 52.27, 218.16 24.35 M175.98 71.87 C186.38 59.54, 195.55 47.76, 216.66 24.94 M181.81 73.61 C191.68 60.14, 203.56 43.91, 216.98 31.83 M181.18 71.74 C194.31 56.33, 208.46 40.24, 215.38 32.46 M185.14 72.62 C195.17 62, 204.08 53.71, 216.9 38.31 M185.03 73.08 C192.82 64.15, 201.13 54.55, 216.9 37.46 M190.73 70.95 C199.77 63.55, 209.26 49.33, 216.21 44.7 M191.07 71.95 C201.51 60.6, 209.59 50.03, 216.57 44.41 M195.82 71.56 C201.29 66.15, 209.66 60.6, 217.15 51.25 M196.35 73.04 C201.98 66.11, 207.35 60.42, 215.72 49.33 M201.71 72.03 C208.67 67.5, 210.84 60.8, 215.33 56.5 M202.73 73.05 C205.37 68.09, 208.64 64.55, 217.38 54.88 M205.84 71.32 C209.06 70.99, 210.06 68.41, 216.99 61.68 M206.88 73.01 C209.56 69.62, 211.99 67.01, 216.84 61.93 M212.35 71.99 C213.54 71.47, 214.04 71.07, 216.49 68.56 M212.83 72.3 C213.87 70.84, 214.8 69.64, 216.16 68.46" stroke="#228be6" stroke-width="0.5" fill="none"></path><path d="M-0.95 -0.08 C45.34 1.43, 90.11 0.9, 214.58 1.33 M-0.32 -0.8 C85.09 1.61, 171.64 2.15, 215.23 0.63 M215.24 -1.1 C217.32 17.2, 215.21 31.2, 214.49 71.55 M214.37 0.2 C215.6 24.42, 215.97 46.32, 215.58 72.73 M215.35 72.12 C141.68 73.67, 64.81 72.88, -1.09 70.28 M214.82 71.34 C166.96 72.58, 120.86 71.84, 0.47 72.12 M-1.3 71.81 C-2.13 50.64, -1.36 34.14, -1.98 0.02 M-0.69 72.15 C0.63 52.95, 0.86 32.35, -0.38 0.38" stroke="#000000" stroke-width="1" fill="none"></path></g><g transform="translate(119.51491178936635 354.6953125) rotate(0 102.5 12.5)"><text x="102.5" y="18" font-family="Virgil, Segoe UI Emoji" font-size="20px" fill="#000000" text-anchor="middle" style="white-space: pre;" direction="ltr">Parent.prototype</text></g><g stroke-linecap="round" transform="translate(114.60084928936635 542.7890625) rotate(0 113.5 34.5)"><path d="M0 0 C0 0, 0 0, 0 0 M0 0 C0 0, 0 0, 0 0 M0.52 6.36 C1.31 4.29, 2.29 4.24, 5.14 0.41 M-0.45 6.2 C1.11 4.1, 3.55 2.37, 5.11 0.74 M0.76 12.46 C2.39 9.95, 6.24 6.56, 10.31 0.77 M-0.5 12.34 C3.4 7.1, 7.15 3.45, 10.03 0.76 M-0.42 20.38 C2.65 14.22, 8.15 10.57, 17.27 0.62 M-0.45 17.93 C5.07 12.66, 9.85 6.12, 15.19 1.1 M1.1 23.77 C9.64 14.82, 17.4 6.95, 23.14 -1.49 M-0.27 24.15 C8.51 16.03, 15.36 6.42, 21.23 0.86 M1.93 31.19 C6.15 22.37, 16.65 12.67, 26.87 -0.23 M0.18 29.94 C7.33 20.58, 15.63 11.48, 25.32 1.21 M0.98 36.32 C11.65 24.47, 21.03 10.6, 29.9 -0.24 M-0.67 36.47 C8.11 28.36, 14.96 19.79, 31.41 0.3 M0.47 42.6 C8.28 32.27, 18.25 23.04, 35.67 -1.72 M-0.09 42.85 C8.44 31.72, 16.97 21.97, 35.94 -0.09 M0.74 49.66 C14.68 33.23, 28.48 15.8, 41.65 -0.3 M0.01 48.83 C12.66 34.59, 23.85 21.19, 43.2 0.84 M-0.29 54.2 C13.16 39.64, 23.22 27.2, 46.94 -0.78 M-0.15 54.91 C10.44 42.65, 19.71 31.66, 47.15 -0.65 M0.39 60.24 C20.36 38.99, 39.67 18.02, 52.32 -1 M-0.46 60.82 C14.44 43.4, 29.5 26.75, 52.77 0.49 M-1.69 68.03 C18.35 46.57, 37.31 23.76, 59.77 -1.62 M-0.17 67.56 C12.03 52.73, 26.01 37.89, 57.91 0.58 M2.34 70.22 C26.77 44.85, 49.53 17.25, 64.6 -1.95 M1.16 69.91 C25.48 44.31, 47.62 16.84, 64.64 0.59 M8.87 71.32 C21.72 52.62, 37.45 31.76, 66.98 -1.74 M7.19 71.04 C24.67 48.52, 45.32 26.64, 69.06 0.55 M11.35 71.17 C25.68 56.44, 38.66 36.48, 76 -1.03 M12.56 70.19 C26.13 56.73, 37.84 42.78, 74.68 -1.08 M17.66 72.08 C35.04 48.97, 56.05 28.29, 81.22 2.09 M17.55 71.07 C33.89 52.55, 49.5 35.68, 80.27 1.07 M24.92 68.75 C45.79 45.81, 71.12 16.68, 84.77 -0.4 M23.2 69.98 C37.69 55.42, 50.1 39.89, 85.14 0.62 M29.05 72.54 C51.63 42.02, 75.17 16.38, 88.88 -0.2 M28.16 71.27 C44.86 51.95, 59.45 33.91, 89.08 -0.12 M34.82 69.54 C53.2 51.55, 68.76 30.29, 95.97 -0.52 M34.96 69.69 C53.43 48.4, 72.9 25.34, 95.61 -0.77 M37.45 72.88 C61.41 44.05, 86.52 16.17, 100.17 -1.93 M38.93 71.86 C56.11 51.53, 73.13 30.75, 99.89 -0.43 M44.62 68.83 C66.47 44.85, 86.65 21.02, 107.42 -2.12 M44.53 70.62 C59.58 54.95, 73.14 37.99, 106.04 -0.32 M50.07 69.01 C68.17 47.87, 88.04 27.22, 111.04 -1.73 M50.15 70.47 C70.14 46.28, 91.36 22.54, 110.97 0.66 M55.66 68.6 C70.11 53.26, 81.52 36.29, 115.09 0.56 M54.49 69.95 C76.58 44.89, 98.72 20.17, 117.1 0.05 M60.91 70.52 C80.76 47.61, 97.15 26.21, 121.25 -1.51 M59.42 71.1 C81.5 46.11, 103.79 22.33, 121.44 0.53 M65.07 71.6 C84.69 51.92, 98.95 31.39, 125.67 -1.3 M66.28 69.77 C84.16 50.71, 102.04 29, 127.76 -0.45 M72.72 70.77 C86.92 52.79, 101.82 32.5, 132.34 -0.43 M70.74 71.15 C89.53 50.32, 105.74 31.33, 132.26 0.47 M75.76 71.25 C98.48 43.91, 120.08 19.06, 138.69 -0.5 M77.18 70.05 C95.07 48.9, 112.71 27.22, 138.42 0.02 M83.06 72.79 C95.44 55.45, 105.52 43.81, 141.63 -0.97 M81.46 70.41 C97.43 52.46, 111.46 34.61, 143.3 0.64 M86.43 69.74 C110.56 43.99, 132.38 18.85, 147.1 1.09 M87.34 69.64 C105.06 51.41, 120.88 33.2, 148.45 -0.04 M90.26 71.36 C109.01 53.46, 125.91 34.52, 152.19 1.13 M91.28 70.07 C104.8 55.71, 116.2 41.8, 154.23 -0.88 M97.53 71.92 C116.82 47.57, 137.3 25.48, 158.64 -0.65 M96.79 71.3 C118.73 45.02, 139.7 21.35, 158.62 0.26 M103.42 70.96 C125.52 46.33, 145.68 20.91, 162.93 -1.16 M103.27 71.69 C117.11 54.23, 132.12 35.13, 163.62 -1.14 M108.67 72.17 C127.49 48.4, 146.18 23.23, 169.83 1.85 M107.72 71.42 C125.24 50.68, 144.5 30.36, 170.04 1.19 M112.45 71.82 C132.68 50.79, 149.29 29.53, 174.48 -0.13 M112.85 70.23 C131.41 50.27, 149.59 29.86, 175.88 0.69 M119.2 69.28 C141.38 45.09, 163.27 22.42, 179.95 1.9 M118.19 72.03 C138.8 47.75, 157.45 25.14, 179.17 -0.59 M126.02 71.85 C140.75 53.45, 154.54 34.45, 187.3 0.61 M124.8 71.06 C135.7 54.52, 150.61 39.49, 186.3 0.37 M130.26 73.05 C149.03 48.46, 164.21 30.48, 189.11 0.52 M129.12 70.31 C144.39 53.68, 161.39 34.51, 190.86 0.99 M133.58 68.71 C153.79 48.61, 173.01 26.5, 195.6 0.19 M134.27 70.91 C155.4 47.47, 174.22 25.66, 196 -0.49 M141.47 71.23 C158.62 52.2, 175.61 34.24, 200.15 0.44 M139.96 70.56 C154.06 53.61, 170.33 36.22, 201.28 0.37 M143.37 69.74 C167.09 45.77, 189.31 19.92, 205.39 -1.52 M145.77 70.92 C161.59 53.06, 176.85 33.91, 206.98 0.63 M152.19 72.3 C171.46 44.67, 192.29 20.69, 212.73 0.14 M151.02 72 C171.45 45.18, 193.68 20.77, 210.99 -0.62 M156.41 70.05 C170.98 50.69, 191.37 32.1, 216.45 -1.97 M156.14 71.61 C174.58 48.87, 194.05 27.51, 217.1 0.14 M159.59 71.45 C174.47 53.7, 191.17 35.13, 221.26 -0.22 M160.47 71.72 C174.35 57.69, 186 42.13, 221.9 0.26 M168.49 70.43 C181.19 50.61, 198.84 33.92, 227.69 -1.11 M165.62 69.89 C183.87 50.27, 202.47 30, 228.42 0.09 M172.6 72.6 C193.24 44.99, 213.96 20.22, 227.04 6.05 M171.33 71.7 C191.65 47.52, 212.35 25.04, 226.37 7.41 M176.2 71.4 C192.01 51.79, 207.19 35.48, 227.27 13.63 M176.79 70.08 C192.4 54.25, 207.05 37.78, 228.31 12.23 M181.94 70.36 C195.14 58.65, 204.78 44.52, 229.38 19.06 M182.49 71.81 C195.69 55.21, 208.88 40.55, 227.34 19.33 M186.9 71.2 C194.51 61.35, 202.45 50.7, 226.15 25.65 M187.58 70.87 C199.58 57.72, 209.36 44.76, 228.06 25.33 M194.13 72.1 C200.58 62.12, 209.69 50.93, 227.64 30.86 M193.69 70.84 C201.93 60.4, 211.35 49.09, 227.39 30.15 M196.73 71.8 C204.84 62.45, 214.4 52.01, 226.6 37.15 M198.3 70.34 C208.62 59.23, 217.15 48.48, 228.3 38.11 M201.44 71.87 C209.71 66.61, 213.41 60, 227.36 44.5 M202.54 71.43 C208.34 65.25, 213.15 57.38, 227.87 43.64 M208.62 68.86 C215.65 64.5, 220.64 53.6, 228.61 48.79 M208.6 70.98 C217.08 63.14, 222.69 54.41, 226.49 49.92 M215.93 72.48 C219.58 65.63, 223.71 58.81, 226.87 54.75 M213.51 71.13 C218.47 66.39, 222.52 60.65, 228.48 55 M218.12 70.76 C220.42 68.66, 222.66 65.93, 227.85 61.89 M219.57 71.32 C221.29 68.09, 224.42 64.87, 227.84 61.95 M224.44 70.9 C225.42 69.94, 225.59 69.74, 227.18 67.57 M224.73 70.89 C225.39 69.84, 226.39 68.84, 227.38 67.91" stroke="#228be6" stroke-width="0.5" fill="none"></path><path d="M-1.15 -0.41 C59.14 -0.7, 119.64 -1.91, 227.12 0.71 M0.84 0.1 C90.85 0.1, 181.79 0.85, 226.5 -0.57 M227.75 1.17 C228.79 24.44, 228.4 50.93, 228.82 70.02 M226.09 1 C228.47 21.93, 228.18 43.21, 227.86 69.64 M226.24 70.38 C170.02 72.01, 113.47 71.27, 1.65 70.53 M226.47 69.11 C138.37 68.87, 50.47 68.3, -0.11 68.41 M-0.32 69.45 C0.31 44.08, 1.58 20.52, -0.92 -0.67 M0.35 68.05 C0.73 53.82, 1.17 39.45, -0.08 0.06" stroke="#000000" stroke-width="1" fill="none"></path></g><g transform="translate(119.60084928936635 564.7890625) rotate(0 108.5 12.5)"><text x="108.5" y="18" font-family="Virgil, Segoe UI Emoji" font-size="20px" fill="#000000" text-anchor="middle" style="white-space: pre;" direction="ltr">Object.prototyp</text></g><g stroke-linecap="round" transform="translate(611.4758492893664 538.2109375) rotate(0 93.08203125 34.29296875)"><path d="M0 0 C0 0, 0 0, 0 0 M0 0 C0 0, 0 0, 0 0 M-0.16 6.09 C1.86 4.51, 2.75 2.37, 4.35 0.82 M-0.5 6.66 C0.92 4.95, 2.31 2.93, 4.8 0.71 M0.94 13.28 C4.64 9.95, 5.28 4.82, 12.06 -1.28 M0.7 12 C2.53 9.5, 5.31 5.37, 10.19 0.06 M1.03 17.71 C4.9 12.88, 11.24 5.44, 16.1 -0.74 M-0.9 18.63 C4.47 13.15, 10.45 6, 16.52 0.61 M1.03 22.2 C6.54 18.2, 12.88 12.65, 21.92 -1.68 M-0.6 23.23 C7.35 15.58, 14.81 5.41, 21.19 0.35 M-0.65 30.23 C7.33 23.48, 11.08 17.69, 25.95 0.14 M-0.29 29.49 C7.42 22.5, 12.47 14.2, 26.58 0.12 M-0.16 37.53 C9.44 27.01, 19.63 14.19, 32.22 -1.62 M-0.57 37.38 C8.88 27, 16.73 17.59, 30.96 -0.92 M0.22 43.44 C8.43 33.57, 15.45 23.45, 35.7 0.66 M0.89 42.49 C14.51 25.87, 28.76 11.17, 37.51 0.87 M-1.73 47.97 C18 30.73, 33.91 10.02, 41.7 -0.73 M-0.26 48.37 C12.31 34.2, 25.92 19.49, 43.01 0.68 M-1.36 55.37 C16.49 34.35, 35.4 13.17, 48.82 0.12 M0.97 54.36 C19.36 34.39, 36.27 12.47, 46.99 -0.66 M-0.23 62.95 C13.38 48.47, 24.65 33.05, 52.42 1.43 M0.07 61.73 C19.03 38.68, 35.89 19.49, 52.38 0.43 M0.67 68.61 C22.75 45.02, 40.28 17.93, 59.51 -1.39 M-0.99 67.46 C17.86 45.1, 38.17 24.35, 58.64 0.36 M1.11 69.66 C23.81 42.98, 49.66 15.31, 64.2 -0.94 M2.67 70.35 C22.1 48.82, 41.59 25.03, 64.48 -0.53 M7.9 72.17 C25.03 52.99, 42.27 33.75, 70.67 -1.01 M8.29 70.65 C27.03 47.46, 47.09 26.39, 68.94 0.12 M12.4 68.78 C31.68 47.98, 52.26 25.71, 72.56 -1.81 M13.26 71.18 C28.06 54.33, 43.31 36.94, 74.11 -0.22 M18.59 72.22 C43.21 41.91, 64.99 13.12, 79.94 0.9 M18.39 71.05 C37.49 48.03, 54.75 26.74, 80.26 -0.84 M23.36 71.15 C37.22 51.89, 52.25 38.37, 86.74 -1.42 M22.4 70.89 C37.79 55.05, 49.48 40.3, 84.48 -0.76 M27.97 68.95 C50.98 43.94, 71.96 20.75, 89.67 -1.24 M28.59 69.84 C47.97 50.94, 65.69 29.83, 89.86 -0.59 M32.96 72.57 C54.02 46.35, 72.28 25.02, 95.69 -0.19 M34.03 69.71 C47.25 54.2, 62.07 38.99, 96.16 0.54 M41.62 71.3 C57.1 51.07, 71.71 30.94, 100.92 -0.21 M40.16 70.03 C56.05 51.93, 71.15 34.23, 100.92 -0.88 M42.9 69.62 C67.79 44.41, 87.71 18.57, 106.09 -0.78 M43.99 70.21 C66.49 45.99, 89.01 20.78, 106.14 0.27 M50.86 69.98 C67.14 51.97, 85.88 30.46, 111.48 1.96 M50.75 70.53 C70.26 48.72, 88.03 26.86, 111.47 -0.08 M55.6 69.65 C77.98 44.33, 99.15 19.36, 115.69 -1.3 M55.03 70.34 C77.67 45.88, 99.2 19.29, 116.14 0.6 M62.04 72.26 C85.67 43.01, 109.6 16.23, 121.86 0.05 M60.78 71.82 C78.94 49.71, 97.72 28.7, 121.45 -0.2 M64.17 68.82 C81.35 53.45, 94.5 39.32, 125.9 -0.36 M65.76 70.39 C83.57 50.98, 101.05 29.58, 126.21 1.33 M69.22 68.9 C96.26 45.01, 120.37 16.33, 133.27 -0.4 M70.99 70.01 C95.4 43.09, 118.94 15.52, 131.7 0.12 M78.47 70.05 C97.32 44.58, 123.43 16.83, 135.91 1.48 M75.71 70.03 C93.14 52, 110.12 31.2, 137.85 -0.65 M80.19 72.73 C105.22 46.1, 125.85 20, 141.67 -1.05 M81.57 70.3 C99.63 50.82, 117.74 30, 142.93 0.56 M87.07 69.04 C105.58 48.33, 124.52 27.27, 147.27 0.7 M86.28 71.27 C108.21 45.69, 128.61 22.5, 147.62 0.69 M93.14 69.59 C117.43 43.83, 140.35 13.88, 155.72 -0.79 M91.76 71.03 C108.15 51.19, 123.92 33.42, 154.75 0.2 M99.25 72.27 C122.57 45.08, 145.36 15.85, 157.25 1.56 M97.78 69.48 C120.6 44.46, 144.25 17.44, 159.42 0.2 M101.97 69.11 C118.05 53.87, 132.32 35.8, 162.79 -1.74 M102.15 71.38 C119.82 51.45, 137.96 29.72, 164.67 0.46 M107.02 71.02 C127.77 51.26, 145.21 29.25, 168.84 2.08 M108.38 70.42 C131.54 41.66, 155.93 13.95, 169.6 0.61 M114.27 70.7 C129.89 53.74, 145.19 34.62, 174.98 0.79 M113.78 70.38 C131.13 50.32, 148.42 30.87, 175.07 0.13 M119.11 71.34 C144.04 44.62, 166.71 17.63, 180.75 0.08 M119.17 71.17 C135.29 53.59, 151.07 34.89, 179.85 -0.47 M125.4 69.55 C142.83 50.48, 158.95 28.02, 187.11 0.25 M125.03 69.95 C144.2 49.38, 162.45 27.03, 186.24 0.35 M130.95 72.06 C148.41 50.16, 166.73 28.47, 187.43 1.42 M129.12 71.19 C148.25 47.34, 168.81 23.55, 188.31 2.65 M136.4 70.63 C155.43 45.96, 176.25 25.1, 187.51 9.18 M134.69 69.83 C154.94 48.34, 174.83 26.13, 188.14 7.93 M138.71 70.79 C152.94 56.46, 160.67 45.35, 190.48 13.02 M140.09 69.3 C152.59 55.04, 166.27 41.13, 187.93 13.83 M144.05 70.69 C156.14 61.79, 162.21 48.03, 189.7 20.83 M144.95 70.65 C161.36 50.58, 178.59 33.16, 189.11 19.95 M149.27 69.91 C165.03 55.93, 176.34 41.41, 188.28 26.24 M151.83 70.66 C166.51 52.16, 181.01 34.98, 189.1 27.43 M154.83 72.27 C164.7 58.3, 177.03 44.1, 189.26 33.7 M156.38 70.9 C163.34 62.64, 169.45 55.62, 189.7 33.34 M162.22 70.62 C172.21 58.67, 181.3 48.25, 190.42 38.01 M160.98 69.82 C170.96 60.22, 180.52 49.15, 189.11 38.47 M166.94 69.68 C174.02 63.01, 179.59 52.77, 187.22 45.14 M166.94 69.89 C172.47 64.58, 178.3 56.32, 189.09 45.46 M171.89 70.85 C178.51 65.7, 183.2 58.08, 187.55 51.8 M172.08 69.66 C175.66 67.24, 178.56 62.71, 188.95 50.6 M176.42 70.97 C179.99 64.48, 184.77 61.66, 189.89 58.35 M177 70.82 C179.57 66.29, 182.7 64.23, 188.11 56.3 M181.41 71.51 C184.5 67.72, 186.68 66.76, 188.36 63.99 M182.03 71.05 C184.5 68.26, 187.06 64.82, 188.87 63.7" stroke="#fab005" stroke-width="0.5" fill="none"></path><path d="M-1.8 0.45 C54.41 0.18, 111.3 0.73, 186.32 -0.25 M-0.47 0.53 C39.09 0.12, 78.28 0.4, 185.64 -0.32 M187.99 0.4 C183.71 25.57, 184.9 48.09, 184.4 67.4 M186.08 -0.77 C185.97 20.58, 186.12 41.94, 186.26 69.41 M184.47 69.24 C135.91 71.02, 85.04 67.92, -0.39 67.92 M186.85 67.76 C144.32 66.25, 102.27 67.22, 0.88 68.1 M-0.91 67.77 C1.13 45.86, 1.6 18.03, 1.42 -1.23 M-0.32 68.97 C-0.7 54.17, 0.53 39.28, -0.74 0.86" stroke="#000000" stroke-width="1" fill="none"></path></g><g transform="translate(616.4758492893664 560.00390625) rotate(0 88 12.5)"><text x="88" y="18" font-family="Virgil, Segoe UI Emoji" font-size="20px" fill="#000000" text-anchor="middle" style="white-space: pre;" direction="ltr">Object()</text></g><g stroke-linecap="round" transform="translate(604.7922555393664 113.9609375) rotate(0 76.5 30.5)"><path d="M0 0 C0 0, 0 0, 0 0 M0 0 C0 0, 0 0, 0 0 M-0.59 6.26 C0.51 4.22, 2.92 2.6, 5.45 -0.38 M-0.42 6.61 C1.13 5.19, 2.23 4.06, 4.94 0.24 M0.83 12.2 C4.73 9.36, 5.9 3.98, 9.15 0.4 M0.74 12.05 C4.28 8.68, 6.85 3.56, 10.25 0.65 M1.75 18.43 C3.7 14.2, 4.68 11.24, 16.77 2.02 M-0.63 17.47 C4.07 15.02, 7.23 8.86, 15.9 -0.24 M0.29 23.03 C4.11 18.59, 8.73 12.35, 20.41 -0.43 M0.04 23.66 C4.77 19.37, 10.82 13.9, 21.03 -0.23 M1.22 29.44 C7.97 23.41, 11.12 14.76, 26.81 0.31 M0.87 30.51 C7.34 20.57, 16.38 12.25, 27.09 0.78 M-1.96 38.86 C13.3 23.99, 23.87 7.9, 29.93 0.16 M-0.71 37.39 C8.9 26.84, 18.21 15.26, 32.54 0.16 M-0.01 40.79 C6.5 34.62, 14.52 23.49, 36.16 0.05 M-0.74 41.88 C9.72 30.35, 20.74 18.9, 37.61 0.1 M0.87 49.5 C15.16 30.85, 32.52 14.77, 42.4 0.06 M-0.57 49.4 C17.09 30.37, 33.82 9.64, 42.65 0.04 M0.48 54.9 C12.81 39.9, 25.87 23.9, 45.55 -0.36 M0.81 54.33 C9.93 43.27, 21.22 31.14, 46.97 0.08 M-1.82 62.75 C17.97 42.75, 32.71 23.13, 52.66 -0.23 M-0.37 61.49 C17.04 42.57, 32.07 24.32, 53.19 -0.64 M1.55 61.86 C17.34 47.19, 33.07 28.55, 58.45 -0.82 M2.29 63.45 C17.52 46.55, 32.91 29.29, 58.06 -0.51 M6.73 62.28 C27.73 39.89, 52.96 14.71, 63.36 0.52 M8.97 64.06 C22.4 46.81, 38.76 28.8, 62.83 -1.06 M12.45 65.5 C30.21 41.57, 48.04 24.81, 67.13 -1.47 M13.94 62.74 C33.13 40.85, 54.27 18.37, 68.1 0.47 M18.9 62.59 C31.55 52.26, 42.04 37.47, 74.89 -1.75 M17.73 63.97 C32.21 48, 46.79 32.06, 74.13 -0.49 M23.09 63.43 C42.93 40.12, 63.36 17.34, 78.65 -0.77 M24.75 62.65 C42.55 43.33, 58.98 22.49, 79.7 -0.43 M28.49 64.88 C46.5 43, 67.32 19.85, 83.44 1.63 M30.2 63.49 C44.64 47.11, 58.35 30.01, 84.48 0.66 M35.03 64.95 C54.57 43.96, 72.39 22.51, 88.83 -1.46 M34.41 63.47 C53.66 39.91, 75.04 17.28, 89.82 0.71 M40.71 63.04 C55.11 45.27, 73.65 25.76, 94.99 -1.96 M39.66 63.23 C52.91 49.12, 65.5 35.39, 95.14 -0.08 M43.63 62.06 C66.17 41.81, 86.44 18.32, 100.28 -0.54 M46.52 63.41 C66.66 37.37, 88.16 12.47, 100.75 0.22 M51.55 64.68 C69.76 42.57, 90.53 20, 107.28 -0.44 M50.72 64.18 C69.78 41.79, 89.15 19.42, 106.23 -0.34 M56 63.48 C74.96 43.81, 93.46 21.98, 112.4 0.71 M55.49 63.54 C73.56 45.24, 89.74 26.74, 111.2 -0.19 M61.77 65.15 C73.04 49.74, 87.87 32.91, 115.21 1.79 M60.38 64.77 C78.15 43.83, 97.43 22, 117.07 0.92 M65.05 64.66 C88.14 40.42, 107.35 17, 123.36 -1.31 M67.63 62.83 C81.29 46.37, 94.52 31.23, 121.17 -0.42 M70.93 65.48 C89.2 43.85, 105.34 23.95, 127.38 -1.26 M70.99 63.77 C90.21 41.41, 110.91 18.7, 127.83 -0.63 M75.49 61.75 C94.33 46.81, 107.94 25.38, 132.12 1.57 M78.08 63.13 C89.31 48.33, 102.68 34.71, 133.08 -0.98 M83.35 62.46 C96.2 50.23, 111.23 31.97, 136.25 1.42 M83.24 63.36 C98.42 44.27, 114.26 25.95, 138.52 0.83 M89.77 61.64 C99.1 51.15, 111.93 36.15, 144.41 -0.79 M87.85 64.21 C103.72 45.6, 118.42 26.71, 142.66 0.03 M94.15 62.57 C116.29 36.46, 136.69 12.94, 146.69 0.81 M93.2 64.13 C112.74 42.72, 131.08 20.47, 148.73 1.25 M98.15 63.93 C117.58 42.33, 135.92 19.73, 154.1 1.94 M98.82 62.69 C113.01 46.29, 129.02 29.43, 153.39 0.62 M103.21 64.03 C117.4 47.25, 133.6 28.75, 152.11 4.64 M103.31 64.02 C118.73 46.05, 135.54 28.22, 152.61 6.51 M108.66 62.94 C125.44 46.59, 141.88 28.08, 153.3 11.63 M108.71 63.13 C123.53 46.75, 139.17 29.86, 153.53 13.03 M113.22 62.75 C123.47 51.64, 130.78 41.73, 154.95 19.31 M113.33 63.4 C129.64 45.65, 143.26 28.61, 154.43 17.35 M120.47 62.45 C128.3 55.74, 132.92 47.4, 153.93 23.98 M119.45 63.68 C131.66 49.33, 144.24 35.2, 152.78 25 M123.63 62.39 C136.82 51.96, 147.3 41.35, 152.03 32.69 M125.42 64 C134.02 52.41, 144.44 41.58, 152.94 31.11 M128.47 62.72 C138.89 52.65, 150.1 42.86, 152.85 35.74 M130.81 64.17 C135.27 57.84, 138.51 53.17, 154.31 35.97 M136.67 64.3 C140.69 59.46, 146.26 53.85, 152.65 45.1 M135.08 63.96 C142.15 56.21, 148.67 48.39, 152.43 43.8 M141.4 62.96 C143.45 61.18, 147.68 57.67, 151.72 47.35 M141.44 63.54 C144.46 60.64, 147.19 56.85, 153.67 48.78 M146.85 62.44 C148.66 62.49, 148.46 61.01, 153.71 54.47 M146.19 63.12 C147.78 61.16, 149.73 60.22, 153.24 55.4" stroke="#fab005" stroke-width="0.5" fill="none"></path><path d="M-1.2 -1.63 C59.17 -2.69, 117.34 -2.12, 153.55 1.31 M-0.03 0.7 C44.93 0.66, 91.08 -0.68, 152.9 -0.51 M152.94 -0.24 C154.53 14.06, 153.76 26.31, 152.54 60.27 M153.88 0.06 C154.03 23.52, 152.33 45.42, 153.76 60.23 M151.6 61.92 C99.17 62.88, 44.23 59.41, -1.54 62.37 M153.93 60.26 C119.25 59.69, 85.02 61.36, 0.41 61.51 M0.23 60 C-1.6 39.68, -0.83 22.38, -0.6 0.42 M-0.37 61.55 C-0.52 45.15, 0.62 28.66, -0.14 0.7" stroke="#000000" stroke-width="1" fill="none"></path></g><g transform="translate(609.7922555393664 131.9609375) rotate(0 71.5 12.5)"><text x="71.5" y="18" font-family="Virgil, Segoe UI Emoji" font-size="20px" fill="#000000" text-anchor="middle" style="white-space: pre;" direction="ltr">Parent()</text></g><g stroke-linecap="round" transform="translate(590.2961617893664 331.52734375) rotate(0 108.64453125 34.888671875)"><path d="M0 0 C0 0, 0 0, 0 0 M0 0 C0 0, 0 0, 0 0 M0 6.62 C0.84 4.22, 3.21 3.01, 4.63 0.77 M-0.02 6.03 C2.07 3.79, 4.26 1.77, 5.31 0.2 M1.19 13.13 C4 7.29, 5.23 5.62, 11.88 -1.19 M-0.47 12.25 C2.61 8.96, 5.87 6.08, 10.15 -0.39 M0.04 18.8 C4.94 11.72, 9.01 4.66, 15.35 1.5 M-0.35 19.29 C4.56 12.82, 8.88 9, 15.56 -0.12 M1.34 25.03 C5.25 18.71, 8.41 16.05, 23.23 0.97 M-0.55 23.91 C7.85 14.59, 17.11 5.31, 20.85 0.91 M1.2 32.18 C9.58 20.88, 18.19 10.3, 25.84 -0.93 M0.06 30.01 C8.34 20.88, 16.62 11.66, 27.09 -0.26 M0.93 38.03 C9.51 27.07, 19.12 15.12, 30.99 -1.78 M-0.16 37.59 C7.46 27.97, 14.37 18.86, 31.81 0.72 M1.51 43.2 C11.47 27.7, 25.54 15.29, 37.22 -0.02 M0.67 43.18 C7.1 34.23, 16.56 24.64, 37.1 0.6 M-0.19 50.14 C7.82 39.58, 16.37 26.75, 43.23 1.79 M-0.69 49.19 C16.64 29.06, 32.33 11.31, 43.22 0.57 M1.37 52.75 C13.71 41.1, 22.44 27.82, 48.84 -0.12 M0.49 54.73 C10.75 43.98, 19.98 31.04, 46.74 -0.62 M1.32 59.15 C9.43 48.03, 23.62 34.67, 52.41 -2.02 M-0.99 60.72 C19.39 39.76, 37.9 16.37, 52.27 -0.58 M1.21 69.27 C18.73 42.81, 41.71 20.83, 59.79 -1.79 M-1.24 66.7 C21.91 42.73, 45.02 15.24, 58.54 -0.15 M2.48 72.37 C25.43 45.24, 49.31 16.17, 65.74 -2.14 M1.47 70.73 C17.52 50.77, 35.62 32.28, 64.08 0.61 M5.38 71.39 C29.15 43.96, 51.75 21.1, 66.88 0.21 M7.79 70.92 C26.25 49.15, 46.57 26.72, 69.39 -0.36 M12.58 71.32 C28.42 52.75, 47.1 31.77, 75.12 -0.69 M12.16 72.13 C32.33 49.57, 51.38 26.92, 74.61 -1.17 M17.82 71.65 C33.15 50.3, 50.03 32.35, 78.62 -1.14 M17.66 71.68 C33.56 51.95, 50.02 34.83, 79.62 -0.75 M23.58 72.97 C39.7 52.12, 55 33.48, 83.19 0.96 M22.9 72.29 C37.3 54.94, 52.81 36.92, 85.75 -0.87 M26.51 69.82 C42.38 54.75, 59.91 37.62, 89.26 0.95 M27.65 70.11 C40.28 57.28, 52.4 41.5, 89.92 1.04 M34.36 69.46 C57.79 45.85, 77.79 20.92, 97.29 0.23 M33.06 71.88 C53 47.98, 73.09 26.73, 96.27 -0.09 M39.43 72.71 C55.66 52.74, 69.86 38.19, 100.75 1.05 M39.22 70.94 C60.79 46.53, 81.57 23.04, 100.37 0.21 M43.5 72.74 C59.04 54.53, 71.68 37.05, 107.5 -0.66 M43.42 70.41 C68.32 43.88, 91.37 15.09, 106.83 -0.05 M51.26 71.9 C72.93 45.06, 95.06 21.84, 112.77 -0.49 M49.72 71.24 C64.5 52.17, 80.87 34.51, 111.46 -0.15 M55.29 72.53 C76.6 45.11, 95.66 21.88, 115.93 0.02 M55.15 71.29 C79.32 43.47, 102.65 14.99, 116.3 0.13 M61.42 69.75 C84.52 45.47, 103.79 17.94, 120.71 0.44 M59.37 71.45 C79.76 49.64, 97.69 29.13, 121.05 -0.12 M65.76 70.33 C79.37 54.05, 97.4 36.4, 125.42 -1.47 M64.8 70.74 C80.22 54.7, 93.47 39.08, 127.46 -0.58 M72.04 69.41 C91.1 46.65, 112.61 21.68, 133.7 1.76 M70.3 70.38 C82.24 54.74, 95.29 40.06, 133.39 0.09 M76.65 69.42 C96.39 50.13, 118.02 25.39, 137.52 0.18 M75.32 70.89 C94.46 48.79, 114.34 26.21, 137.96 0.42 M81.31 73.55 C91.82 57.88, 107.74 43.15, 144.56 1.17 M80.89 70.93 C100.89 45.69, 123.13 22.02, 144.15 -0.86 M85.41 72.87 C109.12 43.56, 132.7 14.09, 149.19 -1.7 M87.05 70.68 C102.51 54.27, 116.31 36.52, 148.03 -0.65 M92.12 71.37 C108.61 51.3, 123.74 34.7, 151.85 -1.88 M91.33 72.13 C115.92 42.77, 139.84 14.13, 153.36 -0.46 M95.23 69.52 C114.22 52.9, 128.15 35.9, 158.07 1 M96.71 70.94 C114.98 52.26, 132.39 32.58, 158.78 -0.23 M102.08 73.11 C126.5 46.56, 149.39 16.27, 165.84 -0.12 M102.78 70.59 C119.42 50.98, 138.5 29.45, 164.45 0.66 M109 72.01 C123.43 52.6, 137.3 36.39, 168.57 1.16 M108.42 71.36 C125.35 51.16, 142.39 32.08, 169.21 -0.41 M112.21 73.04 C127.54 54.48, 143.04 36.98, 174.52 -0.53 M112.93 70.56 C130.91 49.89, 149.92 28.12, 175.24 -0.28 M119.33 70.73 C135.28 50.46, 151.55 30.66, 181.76 -1.52 M118.7 71.48 C141.96 43.34, 166.16 14.96, 179.21 0.11 M124.24 72.2 C141.03 48.57, 159.53 31.47, 185.59 1.72 M124.35 71.63 C143.77 47.44, 165.55 23.31, 184.95 -1.18 M130.56 71.89 C148.13 49.9, 168.61 26.1, 189.47 1.4 M129.43 71.7 C150.03 45.44, 172.35 21.22, 190.57 0.97 M134.59 72.44 C155.6 43.7, 180.91 18.13, 196.48 1.21 M133.52 71.76 C147.34 56.66, 160.34 40.32, 197.17 -0.1 M140.74 71.45 C164.73 44.89, 186.91 16.41, 200.24 1.15 M138.92 70.27 C164 43.85, 188.33 14.72, 201.96 -0.82 M144.45 70.36 C168.16 45.8, 188.86 18.61, 208.34 0.33 M143.79 72.26 C158.98 57.11, 171.92 40.26, 206.91 -0.24 M151.64 69.17 C167.55 48.75, 186.76 29.52, 213.32 1.77 M150.83 70.33 C168.88 50.75, 186 28.93, 211.94 0.08 M153.68 71.35 C169.93 52.8, 185.12 35.57, 216.04 -0.77 M154.42 70.81 C177.24 45.25, 200.17 18.57, 217.54 -0.91 M162.76 70.57 C179.62 49.28, 200.14 25.43, 215.44 4.07 M161.26 70.84 C181.34 46.33, 200.49 23.53, 216.71 6.45 M166.88 71.59 C179.4 54.61, 191.55 40.97, 219.01 10.69 M165.55 70.45 C179.76 54.09, 193.68 37.44, 216.69 12.23 M173.29 68.98 C183.35 56.62, 198.72 38.44, 217.29 19.66 M171.64 71.65 C183.2 58.15, 195.19 43.68, 217.63 17.36 M175.38 72.03 C183.39 62.26, 193.99 51.48, 217.34 22.83 M177.21 70.55 C191.02 54.37, 205.9 37.26, 217.33 24.98 M180.17 71.48 C191.49 58.61, 202.28 51.08, 219.53 28.84 M181.85 70.45 C194.48 57.19, 207.1 42.79, 218.18 29.22 M187.21 72.41 C197.82 60.85, 206.67 51.8, 218.42 37.93 M186.32 71.89 C194.72 62.39, 200.78 54.94, 217.36 36.35 M192.04 68.97 C198.36 64.66, 206.83 54.34, 215.63 43.51 M193.12 71.8 C197.26 65.19, 201.6 60.36, 217.82 43.58 M197.12 69.25 C204.45 63.66, 208.5 58.68, 215.98 47.25 M197.7 71.57 C202.72 64.76, 206.8 60.82, 217.73 48.43 M202.61 70.84 C207.06 67.27, 213.59 61.95, 217.76 56.1 M202.43 70.88 C205.31 66.8, 209.55 64.09, 216.89 55.09 M208.54 70.25 C210.5 66.16, 214.66 64.73, 218.92 61.5 M208.86 71.8 C211.55 66.63, 214.51 63.07, 217.02 60.33 M213.97 71.7 C214.3 69.74, 215.89 68.04, 217.78 66.74 M213.61 71.52 C214.49 70.44, 215.64 69.1, 217.43 67.02" stroke="#228be6" stroke-width="0.5" fill="none"></path><path d="M1.15 -1.34 C49.66 1.89, 97.42 1, 217.19 0.37 M-0.12 0.58 C48.7 0.19, 97.85 1.13, 218.02 -0.78 M218.33 0.99 C218.16 16.01, 217.44 32.53, 218.88 68.28 M217.88 -0.29 C218.1 26.63, 216.52 55.32, 218.02 70.34 M215.91 69.7 C166.74 67.93, 111.73 70.38, -0.45 71.35 M217.76 70.56 C146.58 68.31, 74.75 68.06, 0.53 70.07 M1.68 70.72 C0.49 48.44, -1.05 25.2, -0.2 0.24 M0.33 69.75 C0.5 54.96, -0.3 41.36, 0.05 -0.63" stroke="#000000" stroke-width="1" fill="none"></path></g><g stroke-linecap="round" transform="translate(1076.7336617893664 111.06640625) rotate(0 94.5 29)"><path d="M0 0 C0 0, 0 0, 0 0 M0 0 C0 0, 0 0, 0 0 M-0.75 6.87 C1.03 5.36, 2.9 2.52, 5.17 0.86 M-0.54 6.52 C1.53 4.86, 2.97 2.82, 4.87 0.74 M0.08 12.09 C2.94 6.86, 7.23 2.47, 10.9 0.62 M0.48 12.02 C3.21 9.53, 5.66 6.12, 10.59 0.36 M0.63 17.71 C4.49 12.4, 8.97 8.13, 15.62 0.98 M-0.09 18.93 C6.61 12.08, 12.28 5.1, 15.96 0.28 M0.52 25.71 C6.02 19.49, 11.83 11.72, 20.85 -1.35 M0.95 23.5 C6.89 17.3, 12.07 9.38, 21.97 0.17 M2 28.94 C9.42 22.44, 15.15 13.15, 27.34 1.45 M0.64 31.35 C8.33 21.59, 16.43 11.96, 25.6 -0.2 M-1.36 38.62 C9.03 24.77, 21.35 10.33, 31.08 0.39 M0.62 36.85 C11.91 22.45, 24.13 9.92, 31.09 0.47 M0.2 40.82 C14.11 27.67, 27.44 13.68, 34.94 0.03 M-0.66 42.77 C9.37 32.52, 16.02 23.76, 37.69 -0.45 M-0.55 46.94 C9.55 35.25, 22.59 23.9, 40.67 -1.36 M-0.74 48.94 C9.85 39.27, 17.34 27.26, 43.08 -0.14 M-0.4 54.57 C16.91 32.07, 36.31 14.57, 48.55 -1.56 M-0.56 54.39 C17.02 36.13, 32.26 17.84, 47.16 0.1 M3.12 60.27 C22.55 34.32, 41.88 11.08, 53.38 1.73 M0.77 60.28 C17.05 39.67, 34.88 19.14, 53.42 0.24 M7.88 59.62 C18.85 46.54, 28.11 35.91, 60.09 1.12 M7.3 59.25 C26.07 37.79, 44.17 16.98, 58.79 -0.07 M10.8 58.61 C29.63 40.7, 47.65 19.81, 63.76 -0.3 M12.15 58.97 C29.13 40.75, 44.94 20.66, 62.96 -0.1 M18.37 57.65 C31.19 45.08, 44.57 26.59, 69.23 1.23 M17.45 59.35 C35.04 40.98, 51.24 21.23, 68.24 0.4 M22.36 58.34 C33.33 49.07, 43.08 35.46, 75.13 -1.67 M22.16 59.62 C41.26 36.92, 60.73 16.02, 74.91 0.53 M27.82 59.6 C39.94 42.27, 53.4 30.21, 77.46 -1.34 M27.47 59.59 C42.97 40.7, 58.06 24.89, 79.03 0.75 M32.66 59.93 C52.23 37.53, 72.21 12.55, 85.62 1.11 M32.62 60.17 C51.97 39.06, 71.33 16.16, 85.83 0.19 M39.72 57.56 C54.61 40.67, 71.05 22.42, 90.02 2 M38.25 58.72 C52.41 44.04, 66.78 27.02, 89.52 -0.87 M44.33 60.64 C61.47 35.53, 81.9 17.47, 94.11 -0.75 M44.23 59.46 C62.76 38.48, 81.06 16.67, 96.65 0.35 M50.35 59.39 C68.97 37.71, 87.38 13.41, 101.95 -1.43 M49.02 58.89 C66.15 40.65, 82.32 20.4, 99.94 -0.42 M53.77 60.38 C70.33 41.9, 85.03 25.07, 106.27 -2.33 M53.52 60.2 C70.9 40.34, 86.76 23.13, 105.64 -1.14 M58.08 59.39 C69.99 46.41, 85.66 30.41, 112.06 0.41 M59.72 59.4 C70.81 46.68, 80.68 35.04, 111.37 1.01 M65.16 59.84 C76.31 45.23, 90.3 32.96, 115.91 1.77 M65.89 60 C84.4 37.43, 102.07 17.23, 116.8 -0.28 M72.08 61.31 C86.94 37.73, 105.15 15.64, 120.95 -1.73 M70.62 58.67 C90.32 35.6, 110.1 14.49, 122.78 0.24 M76.5 58.38 C90 40.76, 104.72 23.76, 125.58 0.42 M76.6 58.36 C93.41 40.48, 109.88 19.83, 127.45 1.05 M82.28 60.9 C99.55 35.98, 117.21 13.33, 132.99 -0.37 M81.38 59.77 C101.22 36.25, 121.93 11.74, 131.96 -1.03 M85.52 60.11 C106.02 37.73, 124.33 19.29, 136.64 0.44 M85.77 59.68 C101.87 42.42, 116.47 25, 137.28 0.63 M92.09 60.87 C102.05 48.09, 113.21 34.56, 142.36 -1.32 M90.67 60.42 C103.82 43.72, 118.36 29.61, 142.58 0.8 M95.75 59.84 C109.44 43.25, 124.65 29.85, 149.89 1.65 M97.39 58.24 C112.52 41.93, 128.18 24.58, 148.02 -0.12 M103.68 57.65 C122.49 35.57, 139.75 15.02, 154.97 -1.67 M102.53 58.72 C117.71 42.23, 132.92 23.32, 153.17 0.22 M106.53 57.11 C121.82 44.53, 133.86 27.09, 158.9 -0.44 M108.29 59.21 C121.96 43.83, 136.9 26.49, 159.76 -0.4 M112 59.39 C127.2 41.31, 138.96 27.27, 162.57 0.21 M113.35 60.17 C129.57 40.47, 145.67 21.52, 164.11 -0.41 M118.93 58.18 C139.08 36.66, 157.1 13.19, 168.04 -0.59 M119.17 59.65 C129.76 46.8, 140.57 32.76, 169.92 0.99 M122.8 59.94 C139.88 42.03, 152.43 23.86, 176.64 -1.33 M122.88 58.65 C136.24 46.29, 146.51 33.2, 174.64 0.19 M129.84 58.02 C141.58 45.89, 151.24 29.81, 178.46 2.16 M129.58 59.52 C143.45 42.15, 157.26 24.43, 180.31 0.64 M134.58 60.9 C148.41 42.16, 166.3 24.72, 186.47 -1.22 M133.23 59.42 C154.25 36.28, 174.34 13.44, 185.88 -0.82 M137.92 58.33 C150.18 42.69, 163.23 30.82, 189.42 -0.76 M138.95 58.67 C158.36 37, 177.17 16.39, 189.44 0.28 M144.66 57.56 C159.37 42.22, 179.63 22.57, 190.58 5.88 M143.88 60.17 C158.51 43.07, 170.33 28.41, 189.23 8.15 M149.6 57.5 C165.62 40.65, 179.7 25.49, 188.44 11.61 M149.54 59.82 C161.32 45.4, 173.58 31.39, 189.63 12.84 M155.1 60.94 C161.28 49.1, 170 41.43, 190.41 17.44 M154.66 59.94 C166.55 47.11, 174.98 36.46, 189.13 20.01 M161.12 60.69 C167.88 51.51, 173.92 43, 188.85 24.07 M161.51 59.61 C168.19 51.04, 174.84 42.52, 189.61 25.76 M166.78 59.79 C174.95 46.48, 184.78 36.11, 188.55 30.17 M166.75 60.18 C173.07 50.99, 177.89 45.56, 190.19 31.08 M171.8 58.48 C176.34 54.77, 181.86 48.13, 190.26 37.21 M171.17 60.31 C176.38 53.24, 182.19 46.52, 189.95 37.95 M177.33 58.57 C182.12 52.81, 184.45 49.78, 189.4 44 M175.72 59.72 C179.63 54.64, 184.91 48.57, 190.98 44.06 M180.98 58.53 C184.41 55.08, 187.64 52.45, 189.34 50.63 M180.94 59.75 C184.55 56.47, 188.06 52.57, 190.33 50.22 M187.06 59.28 C187.74 58.22, 189.56 56.24, 190.01 55.49 M186.88 59.37 C187.93 57.85, 188.9 57.11, 190.44 55.23" stroke="#fab005" stroke-width="0.5" fill="none"></path><path d="M-1.62 -0.94 C52.85 1.26, 105.16 -1.87, 189.64 -1.9 M-0.66 0.94 C69.11 0.24, 136.55 0, 188.25 -0.48 M189.13 -1.1 C189.73 16.76, 190.17 33.07, 188.49 59.29 M188.96 -0.71 C188.33 17.14, 188.5 35, 188.55 58.22 M187.26 59.61 C124.87 57.88, 59.35 59.48, -1.1 58.83 M189.5 57.38 C115.29 57.53, 40.64 56.46, 0.95 57.67 M-0.76 58.43 C0.93 41.31, 0.94 27.22, 1.88 0.65 M0.74 58.92 C0.9 36.64, 0.7 13.32, -0.77 0.66" stroke="#000000" stroke-width="1" fill="none"></path></g><g transform="translate(1081.7336617893664 127.56640625) rotate(0 89.5 12.5)"><text x="89.5" y="18" font-family="Virgil, Segoe UI Emoji" font-size="20px" fill="#000000" text-anchor="middle" style="white-space: pre;" direction="ltr">Function()</text></g><g transform="translate(595.2961617893664 353.916015625) rotate(0 103.5 12.5)"><text x="103.5" y="18" font-family="Virgil, Segoe UI Emoji" font-size="20px" fill="#000000" text-anchor="middle" style="white-space: pre;" direction="ltr">Function.prototype</text></g><g stroke-linecap="round"><g transform="translate(1077.0486973258455 134.9882154865171) rotate(0 -134.46899043732992 96.94996910010636)"><path d="M0.03 -0.3 C-44.7 32.31, -223.72 161.7, -268.39 194.46 M-1.41 -1.5 C-46.23 31.32, -224.51 162.76, -268.97 195.4" stroke="#000000" stroke-width="1" fill="none"></path></g><g transform="translate(1077.0486973258455 134.9882154865171) rotate(0 -134.46899043732992 96.94996910010636)"><path d="M-252.84 171.59 C-259.47 179.73, -261.35 184.17, -267.47 195.93 M-252.12 170.39 C-257.13 176.05, -261.21 182.54, -268.23 195.07" stroke="#000000" stroke-width="1" fill="none"></path></g><g transform="translate(1077.0486973258455 134.9882154865171) rotate(0 -134.46899043732992 96.94996910010636)"><path d="M-240.68 188.12 C-250.77 191.32, -256.28 190.84, -267.47 195.93 M-239.95 186.92 C-247.68 188.63, -254.61 191.26, -268.23 195.07" stroke="#000000" stroke-width="1" fill="none"></path></g></g><g stroke-linecap="round"><g transform="translate(602.220032297739 140.29002841264014) rotate(0 -135.49270212307567 95.08809724859893)"><path d="M0.82 -0.89 C-44.39 31.02, -225.41 159.05, -270.69 191.07 M-0.21 1.25 C-45.65 32.82, -226.53 157.76, -271.8 189.06" stroke="#000000" stroke-width="1" fill="none"></path></g><g transform="translate(602.220032297739 140.29002841264014) rotate(0 -135.49270212307567 95.08809724859893)"><path d="M-255.94 164.05 C-260.2 172.43, -265.98 181.95, -270.85 188.2 M-254.16 164.56 C-259.19 170.91, -261.75 176.77, -272.46 189.62" stroke="#000000" stroke-width="1" fill="none"></path></g><g transform="translate(602.220032297739 140.29002841264014) rotate(0 -135.49270212307567 95.08809724859893)"><path d="M-244.27 180.93 C-252.52 183.54, -262.35 187.2, -270.85 188.2 M-242.49 181.44 C-250.32 183.75, -255.59 185.68, -272.46 189.62" stroke="#000000" stroke-width="1" fill="none"></path></g></g><g stroke-linecap="round"><g transform="translate(609.6203805393664 549.5390625) rotate(0 -133.26806621535684 2.1735245279036235)"><path d="M0.91 0.39 C-43.4 0.87, -222.26 3.05, -267.09 3.45 M-0.07 -0.46 C-44.34 0.16, -222.67 4.13, -267.45 4.8" stroke="#000000" stroke-width="1" fill="none"></path></g><g transform="translate(609.6203805393664 549.5390625) rotate(0 -133.26806621535684 2.1735245279036235)"><path d="M-238.81 -4.13 C-245.64 -3.36, -252.38 0.39, -265.94 6.07 M-239.79 -6.98 C-246.97 -3.7, -255.6 0.04, -268.19 4.13" stroke="#000000" stroke-width="1" fill="none"></path></g><g transform="translate(609.6203805393664 549.5390625) rotate(0 -133.26806621535684 2.1735245279036235)"><path d="M-238.42 16.39 C-245.42 13.03, -252.24 12.65, -265.94 6.07 M-239.4 13.54 C-246.52 11.03, -255.26 8.99, -268.19 4.13" stroke="#000000" stroke-width="1" fill="none"></path></g></g><g stroke-linecap="round" transform="translate(125.21413053936635 723.07421875) rotate(0 42.5 21)"><path d="M0 0 C0 0, 0 0, 0 0 M0 0 C0 0, 0 0, 0 0 M-0.66 6.48 C1.82 4.65, 2.36 3.68, 5.16 -0.13 M-0.63 6.25 C1.94 4.11, 3.59 1.71, 4.65 0.31 M0.91 11.35 C3.65 6.6, 8.4 3.93, 11.65 -1.19 M-0.53 11.87 C2.62 9.54, 4.57 6.7, 10.12 -0.43 M1.43 19.14 C1.85 16.09, 5.1 8.7, 15.04 0.78 M0.25 17.91 C6.29 12.06, 12.34 4.21, 15.36 0.58 M1.83 23.17 C5.57 19.03, 8.37 14.12, 21.31 -1.52 M-0.13 24.46 C8.22 14.6, 15.41 6.8, 22.11 0.74 M-0.45 30.19 C5.89 23.08, 12.41 16.62, 25.66 2.14 M0.78 29.86 C10.26 19.15, 18.49 7.69, 25.27 -0.02 M0.43 36.31 C10.01 22.8, 22.23 10.56, 31.58 0.4 M-0.33 37.86 C7.81 26.27, 16.35 17.83, 32.52 0.61 M-0.26 43.22 C6.75 32.84, 16.29 24, 38.68 2.16 M-0.56 43.22 C10.05 30.66, 21.34 19.58, 35.92 -0.36 M6.92 41.87 C16.24 29.27, 29.43 11.73, 42.76 0.84 M6.26 41.62 C14.33 32.18, 22.83 22, 43.33 0.14 M9.94 43.31 C21.93 28.35, 37.31 14.96, 47.31 0.5 M11.15 41.64 C19.59 31.2, 29.61 21.26, 48.2 -0.31 M17.88 42.41 C26.26 32.36, 31.93 20.26, 51.68 0.07 M16.89 42.81 C26.64 30.42, 38.36 17.74, 52.98 -0.24 M21.84 43.45 C31.72 33.23, 39.76 23.55, 58.52 -0.47 M22.18 42.31 C29.37 33.31, 36.21 24.18, 58.88 0.13 M25.06 42.21 C40.3 27.78, 52.78 15.92, 61.95 0.08 M26.05 41.39 C34.5 33.88, 43.72 23.74, 63.3 0.28 M32.44 42.24 C44.9 29.04, 57.89 12.28, 67.05 -1.64 M32.65 42.75 C40.5 33.08, 50.51 21.35, 69.58 -0.17 M36.6 40.99 C46.99 31.42, 56.36 21.65, 73.97 -1.41 M37.66 42.96 C50.18 26.76, 63.09 12, 74.45 -0.08 M43.5 42.03 C54.58 27.74, 67.03 13.22, 77.44 -1.2 M43.06 41.86 C53.73 30.11, 64.05 17.6, 79.78 -0.4 M46.41 41.21 C57.03 30.64, 67.51 21.97, 86.9 -0.99 M47.52 42.97 C59.28 28.01, 72.41 14.83, 85.97 -0.72 M51.57 42.86 C65.13 27.3, 78.23 14.04, 88.04 1.66 M53.24 42.91 C67.85 27.51, 81.32 11.79, 87.84 1.36 M60.17 42.01 C69.65 30.58, 78.27 18.35, 88.85 9.55 M58.28 41.79 C67.65 30.48, 79.28 20.14, 87.89 9.41 M61.98 40.51 C71.46 33.77, 82.21 22.14, 86.38 15.73 M63.41 42.61 C69.83 34.49, 76.03 27.76, 87.41 14.23 M69.36 41.28 C75.42 35.96, 81.08 27.07, 87.77 21.04 M70.45 41.67 C74.93 35.91, 81.09 27.74, 88.7 20.66 M74.85 40.46 C80.53 39.33, 82.77 33.22, 86.22 25.94 M75.13 42.01 C79.62 37.15, 83.11 31.91, 87.41 27.6 M80.21 42.47 C82.73 39.9, 84.8 37.24, 89.21 31.66 M79.02 42.55 C82.92 39.21, 86.08 35.36, 88.44 33.44" stroke="#7950f2" stroke-width="0.5" fill="none"></path><path d="M1.26 -1.19 C19.12 2.25, 41.57 -1.5, 84.33 -1.33 M-0.48 -0.7 C21.77 1.12, 43.64 0.64, 85.09 0.75 M84.54 1.5 C84.35 10.99, 84.25 18.54, 83.76 40.35 M85.35 0.78 C85.21 15.82, 83.69 30.77, 85.2 41.86 M84.15 43.77 C54.4 42.99, 26.66 43.5, -1.99 42.88 M85.84 41.42 C57.2 42.82, 30.24 41.91, 0.68 41.54 M-1.97 40.48 C0.39 32.64, -1.87 22.8, -1.16 0.57 M0.18 41.93 C0.52 31.12, -0.73 22.14, -0.91 -0.77" stroke="#000000" stroke-width="1" fill="none"></path></g><g transform="translate(130.21413053936635 731.57421875) rotate(0 37.5 12.5)"><text x="37.5" y="18" font-family="Virgil, Segoe UI Emoji" font-size="20px" fill="#000000" text-anchor="middle" style="white-space: pre;" direction="ltr">null</text></g><g transform="translate(429.8839145301872 518.0955905427052) rotate(358.9519870534386 59.5 12.5)"><text x="0" y="18" font-family="Virgil, Segoe UI Emoji" font-size="20px" fill="#000000" text-anchor="start" style="white-space: pre;" direction="ltr">__proto__</text></g><g transform="translate(868.5196231871153 211.47244147067795) rotate(323.19598685517076 59.5 12.5)"><text x="0" y="18" font-family="Virgil, Segoe UI Emoji" font-size="20px" fill="#000000" text-anchor="start" style="white-space: pre;" direction="ltr">__proto__</text></g><g transform="translate(397.1704530478953 208.94869652181518) rotate(326.15716055101285 59.5 12.5)"><text x="0" y="18" font-family="Virgil, Segoe UI Emoji" font-size="20px" fill="#000000" text-anchor="start" style="white-space: pre;" direction="ltr">__proto__</text></g><g stroke-linecap="round"><g transform="translate(329.90944303936635 371.84765625) rotate(0 138.3127500113938 -99.04623125986197)"><path d="M-0.57 -0.47 C45.2 -32.95, 228.63 -163.1, 274.8 -195.89 M1.33 -1.76 C47.49 -34.5, 231.38 -165.22, 277.19 -197.62" stroke="#000000" stroke-width="1" fill="none"></path></g><g transform="translate(329.90944303936635 371.84765625) rotate(0 138.3127500113938 -99.04623125986197)"><path d="M259.36 -173.95 C266.93 -178.89, 270.11 -188.86, 275.83 -198.81 M259.2 -172.06 C262.99 -179.13, 268.31 -185.41, 276.6 -197.09" stroke="#000000" stroke-width="1" fill="none"></path></g><g transform="translate(329.90944303936635 371.84765625) rotate(0 138.3127500113938 -99.04623125986197)"><path d="M247.48 -190.69 C258.66 -190.31, 265.57 -195.02, 275.83 -198.81 M247.33 -188.8 C254.07 -191.81, 262.19 -194.16, 276.6 -197.09" stroke="#000000" stroke-width="1" fill="none"></path></g></g><g stroke-linecap="round"><g transform="translate(344.03444303936635 594.625) rotate(0 133.47344254441566 -1.6180365979112707)"><path d="M-0.62 -0.86 C43.89 -1.23, 222.96 -2.47, 267.57 -2.83 M1.25 1.3 C45.63 0.64, 222.85 -3.48, 267.04 -4.54" stroke="#000000" stroke-width="1" fill="none"></path></g><g transform="translate(344.03444303936635 594.625) rotate(0 133.47344254441566 -1.6180365979112707)"><path d="M237.66 7.7 C249.99 3.19, 259.22 -1.63, 265.81 -5.19 M238.44 7.04 C247.82 3.39, 256.18 -1.37, 266.41 -5.02" stroke="#000000" stroke-width="1" fill="none"></path></g><g transform="translate(344.03444303936635 594.625) rotate(0 133.47344254441566 -1.6180365979112707)"><path d="M237.18 -12.82 C249.57 -10.33, 258.96 -8.16, 265.81 -5.19 M237.96 -13.48 C247.67 -10.53, 256.18 -8.71, 266.41 -5.02" stroke="#000000" stroke-width="1" fill="none"></path></g></g><g stroke-linecap="round"><g transform="translate(807.7258492893664 370.55078125) rotate(0 134.84163295440374 -101.19112672619522)"><path d="M-0.94 -0.16 C43.99 -33.85, 225.56 -168.51, 270.62 -202.22 M0.77 -1.29 C45.55 -34.77, 225.59 -167.34, 270.23 -200.65" stroke="#000000" stroke-width="1" fill="none"></path></g><g transform="translate(807.7258492893664 370.55078125) rotate(0 134.84163295440374 -101.19112672619522)"><path d="M253.42 -173.86 C260.16 -185.32, 266.22 -193.9, 271.21 -201.76 M253.95 -175.63 C258.08 -181.53, 262.31 -187.92, 270.3 -201.57" stroke="#000000" stroke-width="1" fill="none"></path></g><g transform="translate(807.7258492893664 370.55078125) rotate(0 134.84163295440374 -101.19112672619522)"><path d="M241.2 -190.35 C252.64 -195.37, 263.4 -197.6, 271.21 -201.76 M241.73 -192.12 C248.84 -194.15, 255.96 -196.64, 270.3 -201.57" stroke="#000000" stroke-width="1" fill="none"></path></g></g><g stroke-linecap="round"><g transform="translate(589.0813180393664 363.625) rotate(0 -124.25411702208226 90.07738331966101)"><path d="M1.12 -0.73 C-40.53 29.23, -208.13 150.73, -249.63 180.88 M0.25 1.51 C-41.06 31.6, -206.06 149.01, -247.48 178.99" stroke="#000000" stroke-width="1" fill="none"></path></g><g transform="translate(589.0813180393664 363.625) rotate(0 -124.25411702208226 90.07738331966101)"><path d="M-231.76 152.44 C-235.01 163.48, -241.59 168.78, -246.51 180.81 M-231.38 154.42 C-236.58 164.65, -244.58 173.98, -247.77 178.57" stroke="#000000" stroke-width="1" fill="none"></path></g><g transform="translate(589.0813180393664 363.625) rotate(0 -124.25411702208226 90.07738331966101)"><path d="M-219.8 169.11 C-227.05 174.91, -237.47 174.87, -246.51 180.81 M-219.42 171.1 C-229.28 174.92, -241.95 177.74, -247.77 178.57" stroke="#000000" stroke-width="1" fill="none"></path></g></g><g transform="translate(388.8977242893661 422.8671875) rotate(323.88258731021483 59.5 12.5)"><text x="0" y="18" font-family="Virgil, Segoe UI Emoji" font-size="20px" fill="#000000" text-anchor="start" style="white-space: pre;" direction="ltr">__proto__</text></g><g stroke-linecap="round"><g transform="translate(147.98366178936635 187.56640625) rotate(0 0.7977940101176273 71.86205005167983)"><path d="M-0.67 0.14 C-0.39 24.04, 1.72 120.67, 2.27 144.55 M1.18 -0.83 C1.23 23.21, 1.11 118.47, 1.23 142.69" stroke="#000000" stroke-width="1" fill="none"></path></g><g transform="translate(147.98366178936635 187.56640625) rotate(0 0.7977940101176273 71.86205005167983)"><path d="M-8.84 114.23 C-4.37 124.71, -2.54 135.1, 0.8 141.33 M-8.35 115.27 C-5.49 123.34, -2.77 131.98, 1.11 143.58" stroke="#000000" stroke-width="1" fill="none"></path></g><g transform="translate(147.98366178936635 187.56640625) rotate(0 0.7977940101176273 71.86205005167983)"><path d="M11.68 114.2 C8.95 124.57, 3.56 134.98, 0.8 141.33 M12.17 115.24 C8.86 123.33, 5.42 131.98, 1.11 143.58" stroke="#000000" stroke-width="1" fill="none"></path></g></g><g stroke-linecap="round"><g transform="translate(149.37819303936635 402.1328125) rotate(0 3.251204329738357 70.19511052413841)"><path d="M1.05 -0.55 C1.98 22.81, 5.2 116.41, 6.37 139.71 M0.14 1.77 C0.79 25.33, 3.84 117.9, 5.13 140.94" stroke="#000000" stroke-width="1" fill="none"></path></g><g transform="translate(149.37819303936635 402.1328125) rotate(0 3.251204329738357 70.19511052413841)"><path d="M-7.24 112.29 C-3.21 125.14, 0.19 131.79, 3.35 141.03 M-6.38 113.56 C-2.43 122.53, -0.31 131.28, 4.24 141.61" stroke="#000000" stroke-width="1" fill="none"></path></g><g transform="translate(149.37819303936635 402.1328125) rotate(0 3.251204329738357 70.19511052413841)"><path d="M13.26 111.42 C9.8 124.76, 5.71 131.74, 3.35 141.03 M14.12 112.69 C11.71 121.99, 7.49 131.01, 4.24 141.61" stroke="#000000" stroke-width="1" fill="none"></path></g></g><g stroke-linecap="round"><g transform="translate(154.93678678936635 612.39453125) rotate(0 -0.603364435216406 54.84888680069707)"><path d="M0.08 -0.15 C0.25 18.35, -0.01 92.67, -0.04 110.98 M-1.34 -1.28 C-1.16 16.87, -0.68 90.52, -0.53 109.17" stroke="#000000" stroke-width="1" fill="none"></path></g><g transform="translate(154.93678678936635 612.39453125) rotate(0 -0.603364435216406 54.84888680069707)"><path d="M-11.25 82.5 C-7.81 88.35, -7.79 91.95, -1.15 108.34 M-10.86 80.35 C-8.18 87.76, -4.7 95.69, -1.42 109.11" stroke="#000000" stroke-width="1" fill="none"></path></g><g transform="translate(154.93678678936635 612.39453125) rotate(0 -0.603364435216406 54.84888680069707)"><path d="M9.27 82.35 C8.38 88.24, 4.09 91.88, -1.15 108.34 M9.66 80.2 C6.9 87.56, 4.94 95.52, -1.42 109.11" stroke="#000000" stroke-width="1" fill="none"></path></g></g><g transform="translate(10.073505539366352 233.33984375) rotate(359.65822114620073 59.5 12.5)"><text x="0" y="18" font-family="Virgil, Segoe UI Emoji" font-size="20px" fill="#000000" text-anchor="start" style="white-space: pre;" direction="ltr">__proto__</text></g><g transform="translate(16.32350553936635 448.6328125) rotate(359.28784144727643 59.5 12.5)"><text x="0" y="18" font-family="Virgil, Segoe UI Emoji" font-size="20px" fill="#000000" text-anchor="start" style="white-space: pre;" direction="ltr">__proto__</text></g><g transform="translate(26.37038053936635 636.3671875) rotate(359.6071746839678 59.5 12.5)"><text x="0" y="18" font-family="Virgil, Segoe UI Emoji" font-size="20px" fill="#000000" text-anchor="start" style="white-space: pre;" direction="ltr">__proto__</text></g><g stroke-linecap="round"><g transform="translate(249.13209928936635 142.32421875) rotate(0 177.71296280808752 -2.545950946370141)"><path d="M-1.08 0.53 C58.34 -0.15, 297.04 -2.75, 356.5 -3.66 M0.56 -0.24 C59.87 -1.33, 296.8 -4.96, 355.84 -5.62" stroke="#000000" stroke-width="1" fill="none"></path></g><g transform="translate(249.13209928936635 142.32421875) rotate(0 177.71296280808752 -2.545950946370141)"><path d="M328.66 5.93 C336.71 1.66, 342.95 -0.74, 356.28 -6 M328.37 4.68 C338.03 -0.06, 349.28 -4.17, 355.4 -4.96" stroke="#000000" stroke-width="1" fill="none"></path></g><g transform="translate(249.13209928936635 142.32421875) rotate(0 177.71296280808752 -2.545950946370141)"><path d="M328.39 -14.59 C336.58 -12.69, 342.91 -8.93, 356.28 -6 M328.09 -15.84 C338 -12.74, 349.36 -9.01, 355.4 -4.96" stroke="#000000" stroke-width="1" fill="none"></path></g></g><g stroke-linecap="round"><g transform="translate(759.1438180393664 132.18359375) rotate(0 158.88596639819445 -1.7769302565604477)"><path d="M-0.84 0.68 C52.37 -0.11, 265.39 -3.47, 318.62 -4.23 M0.91 -0.01 C54 -0.67, 264.76 -2.49, 317.53 -2.92" stroke="#000000" stroke-width="1" fill="none"></path></g><g transform="translate(759.1438180393664 132.18359375) rotate(0 158.88596639819445 -1.7769302565604477)"><path d="M290.56 7.15 C295.54 4.56, 303.02 3.44, 316.71 -1.24 M288.67 8.01 C297.92 4.59, 307.34 1.65, 318.3 -2.86" stroke="#000000" stroke-width="1" fill="none"></path></g><g transform="translate(759.1438180393664 132.18359375) rotate(0 158.88596639819445 -1.7769302565604477)"><path d="M290.38 -13.37 C295.5 -10.94, 303.01 -7.03, 316.71 -1.24 M288.5 -12.51 C297.61 -9.22, 307.1 -5.45, 318.3 -2.86" stroke="#000000" stroke-width="1" fill="none"></path></g></g><g transform="translate(333.98366178936635 104.984375) rotate(0 57.5 12.5)"><text x="0" y="18" font-family="Virgil, Segoe UI Emoji" font-size="20px" fill="#000000" text-anchor="start" style="white-space: pre;" direction="ltr">constructor</text></g><g transform="translate(833.3938180393664 98.62890625) rotate(0 57.5 12.5)"><text x="0" y="18" font-family="Virgil, Segoe UI Emoji" font-size="20px" fill="#000000" text-anchor="start" style="white-space: pre;" direction="ltr">constructor</text></g><g transform="translate(393.81959928936635 599.8671875) rotate(0 57.5 12.5)"><text x="0" y="18" font-family="Virgil, Segoe UI Emoji" font-size="20px" fill="#000000" text-anchor="start" style="white-space: pre;" direction="ltr">constructor</text></g><g transform="translate(415.39381803936635 283.62890625) rotate(324.15602138845844 57.5 12.5)"><text x="0" y="18" font-family="Virgil, Segoe UI Emoji" font-size="20px" fill="#000000" text-anchor="start" style="white-space: pre;" direction="ltr">constructor</text></g><g transform="translate(894.5969430393664 276.6015625) rotate(322.3359495748426 57.5 12.5)"><text x="0" y="18" font-family="Virgil, Segoe UI Emoji" font-size="20px" fill="#000000" text-anchor="start" style="white-space: pre;" direction="ltr">constructor</text></g><g stroke-linecap="round"><g transform="translate(797.4797555393664 572.3046875) rotate(0 180.71009993329642 -201.16180661417542)"><path d="M0.54 -0.55 C60.99 -67.62, 301.9 -335.18, 362.06 -402.46 M-0.64 1.77 C59.69 -65.62, 300.2 -336.57, 360.96 -404.09" stroke="#000000" stroke-width="1" fill="none"></path></g><g transform="translate(797.4797555393664 572.3046875) rotate(0 180.71009993329642 -201.16180661417542)"><path d="M348.91 -376.71 C354.11 -384.55, 353.89 -389.76, 362.68 -403.75 M350 -375.77 C352.44 -381.73, 354.5 -387.64, 361.88 -403.79" stroke="#000000" stroke-width="1" fill="none"></path></g><g transform="translate(797.4797555393664 572.3046875) rotate(0 180.71009993329642 -201.16180661417542)"><path d="M333.6 -390.38 C342.54 -394.95, 346.06 -396.81, 362.68 -403.75 M334.7 -389.44 C340.14 -392.63, 345.31 -395.75, 361.88 -403.79" stroke="#000000" stroke-width="1" fill="none"></path></g></g><g transform="translate(915.3938180393661 391.62890625) rotate(310.88142753748804 57.5 12.5)"><text x="0" y="18" font-family="Virgil, Segoe UI Emoji" font-size="20px" fill="#000000" text-anchor="start" style="white-space: pre;" direction="ltr">constructor</text></g><g stroke-linecap="round"><g transform="translate(667.7063180393664 175.98046875) rotate(0 2.2809473263657765 78.03784413134679)"><path d="M0.41 0.71 C1.07 26.39, 2.55 129.1, 3.3 154.55 M-0.84 0.03 C0.24 25.87, 4.52 130.36, 5.4 156.04" stroke="#000000" stroke-width="1" fill="none"></path></g><g transform="translate(667.7063180393664 175.98046875) rotate(0 2.2809473263657765 78.03784413134679)"><path d="M-4.75 126.3 C-3.21 135.79, -2.28 143.06, 6.84 155.93 M-5.9 127.5 C-2.36 136.75, 1.52 144.02, 6.17 156.48" stroke="#000000" stroke-width="1" fill="none"></path></g><g transform="translate(667.7063180393664 175.98046875) rotate(0 2.2809473263657765 78.03784413134679)"><path d="M15.75 125.52 C12.3 135.27, 8.24 142.73, 6.84 155.93 M14.6 126.72 C12.21 136.21, 10.16 143.71, 6.17 156.48" stroke="#000000" stroke-width="1" fill="none"></path></g></g><g stroke-linecap="round"><g transform="translate(686.2492867893664 536.9375) rotate(0 -1.927746742507452 -68.80033723898231)"><path d="M0.24 0.94 C-0.54 -22.34, -3.02 -115.63, -3.64 -138.55 M-1.09 0.39 C-2.05 -22.26, -3.67 -114.43, -4.1 -137.55" stroke="#000000" stroke-width="1" fill="none"></path></g><g transform="translate(686.2492867893664 536.9375) rotate(0 -1.927746742507452 -68.80033723898231)"><path d="M8.26 -107.99 C0.48 -118.66, -0.36 -132.41, -3.16 -135.66 M7.47 -109.6 C3.12 -119.22, -1.58 -127.31, -4.55 -137.83" stroke="#000000" stroke-width="1" fill="none"></path></g><g transform="translate(686.2492867893664 536.9375) rotate(0 -1.927746742507452 -68.80033723898231)"><path d="M-12.26 -107.62 C-12.03 -118.48, -4.86 -132.36, -3.16 -135.66 M-13.04 -109.22 C-10.71 -119.1, -8.72 -127.31, -4.55 -137.83" stroke="#000000" stroke-width="1" fill="none"></path></g></g><g transform="translate(680.2570992893664 218.59375000000006) rotate(359.65822114620073 59.5 12.5)"><text x="0" y="18" font-family="Virgil, Segoe UI Emoji" font-size="20px" fill="#000000" text-anchor="start" style="white-space: pre;" direction="ltr">__proto__</text></g><g transform="translate(689.2883492893666 446.86328125) rotate(359.65822114620073 59.5 12.5)"><text x="0" y="18" font-family="Virgil, Segoe UI Emoji" font-size="20px" fill="#000000" text-anchor="start" style="white-space: pre;" direction="ltr">__proto__</text></g><g stroke-linecap="round"><g transform="translate(1266.0227242893664 149.59784616745526) rotate(0 -23.96291757013853 -61.98781508437527)"><path d="M0.07 -14.63 C8.22 -18.15, 44.21 -22.51, 48.9 -36.47 C53.6 -50.44, 42.22 -87.21, 28.26 -98.42 C14.3 -109.63, -14.02 -113.59, -34.86 -103.73 C-55.7 -93.86, -86.27 -50.17, -96.78 -39.21 M1.94 -15.73 C10.09 -19.52, 44.2 -24.56, 48.5 -38.14 C52.8 -51.73, 41.57 -86.44, 27.74 -97.24 C13.91 -108.03, -13.54 -112.6, -34.46 -102.9 C-55.39 -93.19, -87.46 -49.75, -97.83 -39.03" stroke="#000000" stroke-width="1" fill="none"></path></g><g transform="translate(1266.0227242893664 149.59784616745526) rotate(0 -23.96291757013853 -61.98781508437527)"><path d="M-87.46 -65.39 C-88.59 -59.57, -93.01 -53.05, -98.7 -37.68 M-87.33 -68.03 C-90.06 -58.89, -93.04 -52.39, -97.98 -38.66" stroke="#000000" stroke-width="1" fill="none"></path></g><g transform="translate(1266.0227242893664 149.59784616745526) rotate(0 -23.96291757013853 -61.98781508437527)"><path d="M-71.88 -52.04 C-76.71 -49.54, -84.9 -46.26, -98.7 -37.68 M-71.74 -54.68 C-78.6 -48.99, -85.75 -46.07, -97.98 -38.66" stroke="#000000" stroke-width="1" fill="none"></path></g></g><g transform="translate(1205.5383492893664 10) rotate(0 57.5 12.5)"><text x="0" y="18" font-family="Virgil, Segoe UI Emoji" font-size="20px" fill="#000000" text-anchor="start" style="white-space: pre;" direction="ltr">constructor</text></g></svg>